<svg xmlns="http://www.w3.org/2000/svg" version="1.1"
  xmlns:xlink="http://www.w3.org/1999/xlink" viewBox="0 0 513.009 513.009" style="enable-background:new 0 0 512 512" xml:space="preserve">
  <g>
    <path d="M148.994 235.912a7.5 7.5 0 0 1 2.584 10.287c-.048.08-4.847 8.1-12.823 21.619a7.495 7.495 0 0 1-10.271 2.647 7.5 7.5 0 0 1-2.648-10.271c8.004-13.564 12.824-21.619 12.871-21.699a7.502 7.502 0 0 1 10.287-2.583zm230.787 211.872a7938.688 7938.688 0 0 1 5.604 24.836c35.933 10.621 84.636 6.617 100.48-16.82a7.5 7.5 0 1 1 12.427 8.401c-20.449 30.245-75.675 35.169-117.286 22.776-14.26 12.934-35.114 21.944-58.038 24.95a125.872 125.872 0 0 1-16.36 1.082c-18.411 0-35.687-4.203-50.104-12.278-18.624 10.43-42.023 14.401-66.464 11.196-22.924-3.006-43.778-12.016-58.038-24.95-41.614 12.395-96.837 7.468-117.286-22.776a7.502 7.502 0 0 1-.381-7.773 4311.36 4311.36 0 0 1 13.659-25.012c-7.806-6.759-14.431-14.979-19.72-24.566a7.5 7.5 0 0 1 .117-7.451 16355.806 16355.806 0 0 0 36.627-62.058c5.266-8.962 10.294-17.531 15.11-25.74 69.486-118.433 89.667-152.832 127.703-178.566-.672-13.15-4.43-29.737-8.075-45.827-3.945-17.414-7.672-33.862-7.672-46.325C172.084 18.34 191.839 0 216.121 0c11.225 0 24.473 5.892 40.383 17.984C272.415 5.892 285.663 0 296.888 0c24.282 0 44.037 18.34 44.037 40.883 0 12.463-3.727 28.912-7.672 46.325-3.645 16.092-7.403 32.678-8.075 45.829 13.705 9.289 24.768 19.561 36.407 33.724a7.5 7.5 0 1 1-11.589 9.523c-11.318-13.771-22.004-23.502-35.545-32.361-2.844 2.554-6.091 5.088-9.635 7.843-2.487 1.933-5.307 4.125-8.298 6.555-1.378 1.119-3.053 1.679-4.729 1.679s-3.352-.56-4.729-1.679c-2.992-2.431-5.811-4.622-8.298-6.555-3.277-2.547-6.3-4.906-8.988-7.266h-72.102c-36.191 23.997-55.575 57.034-124.606 174.692-4.061 6.921-8.275 14.103-12.651 21.555a55.706 55.706 0 0 0 11.813 11.828 7463.555 7463.555 0 0 1 35.878-62.161 7.498 7.498 0 0 1 10.257-2.697 7.498 7.498 0 0 1 2.698 10.257 7454.702 7454.702 0 0 0-35.741 61.923c21.266 8.735 47.494 6.725 68.277.375a7.504 7.504 0 0 1 7.329 1.709c6.898 6.485 17.314 11.801 29.33 14.966a7.5 7.5 0 1 1-3.822 14.504c-12.862-3.388-23.997-8.769-32.491-15.668-23.508 6.409-52.27 7.642-76.099-2.753a5852.546 5852.546 0 0 0-30.334 54.069c26.352 15.889 60.931 13.589 87.793 4.293a7.498 7.498 0 0 1 7.921 1.954c22.56 24.029 75.161 34.669 109.168 12.381a7.498 7.498 0 0 1 8.223 0c30.777 20.173 76.778 13.372 101.963-5.913a10420.348 10420.348 0 0 0-13.309-57.411c-10.73 6.073-23.92 10.275-38.035 11.961-4.562.545-9.083.814-13.524.814-15.102 0-29.297-3.112-41.204-9.093-9.175 4.618-19.641 7.509-31.177 8.605-4.12.396-7.784-2.633-8.176-6.757s2.633-7.784 6.757-8.176c10.824-1.029 20.796-4.032 28.838-8.684a7.495 7.495 0 0 1 7.512 0c25.767 14.908 64.149 10.041 85.389-4.055-13.974-59.197-24.939-103.695-25.111-104.395a7.5 7.5 0 0 1 14.563-3.593c.17.688 10.749 43.622 24.371 101.258 30.21 9.213 71.891 9.255 93.122-19.542-4.378-7.454-8.593-14.638-12.655-21.561-31.596-53.853-52.469-89.43-69.736-115.245a7.5 7.5 0 1 1 12.468-8.34c17.513 26.182 38.475 61.911 70.206 115.994 4.816 8.209 9.844 16.778 15.11 25.74l.017.029a16411.794 16411.794 0 0 0 36.614 62.035 7.5 7.5 0 0 1 .117 7.451c-13.287 24.082-34.981 39.576-62.737 44.809-24.653 4.646-47.645.358-62.217-3.874zm-68.826-326.697a7.095 7.095 0 0 0-7.087-7.087 7.095 7.095 0 0 0-5.873 3.119 7.5 7.5 0 0 1-12.412 0 7.093 7.093 0 0 0-5.872-3.119 7.095 7.095 0 0 0-7.087 7.087c0 6.596 3.688 9.776 15.344 18.836 1.202.935 2.48 1.928 3.822 2.982 1.342-1.055 2.62-2.048 3.822-2.982 11.655-9.06 15.343-12.24 15.343-18.836zm-116.57-37.192c3.545 15.648 7.181 31.735 8.238 45.605h56.247c-.797-2.525-1.247-5.284-1.247-8.413 0-.534.026-1.062.063-1.587h-34.249a7.5 7.5 0 0 1 0-15h41.712c3.891-3.42 8.986-5.5 14.561-5.5 4.356 0 8.538 1.28 12.079 3.594A22.061 22.061 0 0 1 303.868 99c3.925 0 7.611 1.034 10.809 2.836 1.232-5.947 2.596-11.977 3.948-17.942 3.754-16.573 7.301-32.226 7.301-43.011C325.926 26.611 312.9 15 296.889 15c-5.928 0-16.927 3.183-35.665 18.349a7.5 7.5 0 0 1-9.437 0C233.048 18.183 222.049 15 216.121 15c-16.011 0-29.037 11.611-29.037 25.883 0 10.785 3.546 26.439 7.301 43.012zm168.996 292.982c4.056 17.27 8.305 35.536 12.575 54.154a7.467 7.467 0 0 1 1.749.361c36.265 12.551 86.598 12.361 111.758-28.139a15960.334 15960.334 0 0 1-28.741-48.677c-24.446 27.774-65.052 30.018-97.341 22.301zm-327.937 41.05a5888.168 5888.168 0 0 1 29.305-52.213 70.167 70.167 0 0 1-12.462-11.138 15839.508 15839.508 0 0 1-28.741 48.677c3.511 5.653 7.513 10.517 11.898 14.674zm335.323 58.058a7768.18 7768.18 0 0 0-4.58-20.328c-12.648 8.259-28.342 13.985-45.196 16.266a118.801 118.801 0 0 1-15.923 1.086c-17.833 0-34.573-4.181-48.563-12.213-18.09 10.386-40.781 14.334-64.486 11.126-22.218-3.006-42.433-11.989-56.29-24.888-14.352 4.442-38.605 9.545-64.716 4.624-11.314-2.133-21.62-5.972-30.761-11.401a4333.17 4333.17 0 0 0-10.396 19.019c18.847 21.137 67.342 23.638 101.758 12.094a7.496 7.496 0 0 1 7.772 1.893c23.364 24.122 77.857 34.797 113.096 12.407a7.498 7.498 0 0 1 8.044 0c33.879 21.525 85.54 12.481 110.241-9.685z"></path>
  </g>
</svg>