<svg xmlns="http://www.w3.org/2000/svg" version="1.1"
  xmlns:xlink="http://www.w3.org/1999/xlink" viewBox="0 0 512.007 512.007" style="enable-background:new 0 0 512 512" xml:space="preserve">
  <g>
    <path d="M70.757 71.753c0 12.406 10.093 22.5 22.5 22.5s22.5-10.094 22.5-22.5-10.093-22.5-22.5-22.5-22.5 10.094-22.5 22.5zm30 0c0 4.136-3.364 7.5-7.5 7.5s-7.5-3.364-7.5-7.5 3.364-7.5 7.5-7.5 7.5 3.365 7.5 7.5zM130.007 72.003c0 12.406 10.093 22.5 22.5 22.5s22.5-10.094 22.5-22.5-10.093-22.5-22.5-22.5-22.5 10.094-22.5 22.5zm30 0c0 4.136-3.364 7.5-7.5 7.5s-7.5-3.364-7.5-7.5 3.364-7.5 7.5-7.5 7.5 3.365 7.5 7.5zM189.007 72.003c0 12.406 10.093 22.5 22.5 22.5s22.5-10.094 22.5-22.5-10.093-22.5-22.5-22.5-22.5 10.094-22.5 22.5zm30 0c0 4.136-3.364 7.5-7.5 7.5s-7.5-3.364-7.5-7.5 3.364-7.5 7.5-7.5 7.5 3.365 7.5 7.5zM264.007 72.003c0 12.406 10.093 22.5 22.5 22.5h133c12.407 0 22.5-10.094 22.5-22.5s-10.093-22.5-22.5-22.5h-133c-12.407 0-22.5 10.094-22.5 22.5zm163 0c0 4.136-3.364 7.5-7.5 7.5h-133c-4.136 0-7.5-3.364-7.5-7.5s3.364-7.5 7.5-7.5h133c4.135 0 7.5 3.365 7.5 7.5z"></path>
    <path d="M512.007 200.003a43.574 43.574 0 0 0-4.12-18.432 7.117 7.117 0 0 0-.187-.37l-35.693-66.094V67.003c0-26.191-21.309-47.5-47.5-47.5h-51.5c-4.142 0-7.5 3.357-7.5 7.5s3.358 7.5 7.5 7.5h51.5c17.92 0 32.5 14.579 32.5 32.5v42.5h-402v-42.5c0-17.921 14.58-32.5 32.5-32.5h250.5c4.142 0 7.5-3.357 7.5-7.5s-3.358-7.5-7.5-7.5h-250.5c-26.191 0-47.5 21.309-47.5 47.5v48.105l-15.868 29.384a7.5 7.5 0 0 0 6.592 11.064 7.498 7.498 0 0 0 6.606-3.938l14.643-27.115h60.634l-8.523 58.481-.019.139a134.523 134.523 0 0 0-1.066 16.88c0 22.332-18.168 40.5-40.5 40.5-24.572 2.787-47.691-15.042-47.5-40.5-.234-6.117 2.564-12.357 5.653-17.504a7.5 7.5 0 0 0-3.035-10.163 7.504 7.504 0 0 0-10.163 3.036C3.01 182.72-.167 191.328.006 200.003c0 25.223 16.919 46.555 40 53.281v191.719c0 26.191 21.309 47.5 47.5 47.5h337c26.191 0 47.5-21.309 47.5-47.5v-31.5c0-4.143-3.358-7.5-7.5-7.5s-7.5 3.357-7.5 7.5v31.5c0 17.921-14.58 32.5-32.5 32.5h-337c-17.92 0-32.5-14.579-32.5-32.5V255.491l7.5.013c20.48 0 38.391-11.159 48.009-27.708 6.384 11.009 16.481 19.788 28.911 24.339 3.788 1.417 8.202-.536 9.622-4.465a7.5 7.5 0 0 0-4.464-9.621c-15.897-5.82-26.578-21.109-26.578-38.046-.002-4.994.34-9.993.942-14.95l8.824-60.55h73.234v75.5c0 16.937-10.681 32.226-26.578 38.046a7.5 7.5 0 0 0-4.464 9.621c1.419 3.928 5.834 5.882 9.622 4.465 12.431-4.551 22.527-13.331 28.911-24.339 9.617 16.549 27.529 27.708 48.009 27.708h1c20.474 0 38.38-11.152 48-27.692 9.62 16.54 27.526 27.692 48 27.692s38.38-11.152 48-27.692c9.62 16.54 27.526 27.692 48 27.692 0 0 7.333-.011 7.5-.013v123.013c0 4.143 3.358 7.5 7.5 7.5s7.5-3.357 7.5-7.5V253.285c23.082-6.726 40.001-28.059 40.001-53.282zm-254.5 40.5h-1c-22.332 0-40.5-18.168-40.5-40.5v-75.5h82v75.5c0 22.332-18.169 40.5-40.5 40.5zm96 0c-22.332 0-40.5-18.168-40.5-40.5v-75.5h72.147l7.993 60.455c.551 4.993.862 10.022.861 15.045-.001 22.332-18.17 40.5-40.501 40.5zm111.084-.812c-4.457.856-10.474.91-15.084.812-22.332 0-40.5-18.168-40.5-40.5 0-5.596-.324-11.249-.964-16.805l-.016-.126-7.744-58.569h59.75l34.363 63.632a28.475 28.475 0 0 1 2.61 11.868c.001 19.565-13.943 35.932-32.415 39.688z"></path>
    <path d="m235.497 393.504.016-.001H283.5l.016.001.021-.001h46.83a7.5 7.5 0 0 0 7.352-6.017l16.14-80c1.02-4.485-2.755-9.096-7.352-8.983H177.454c-2.228-13.146-13.796-23.031-27.157-23h-12.791c-4.142 0-7.5 3.357-7.5 7.5s3.358 7.5 7.5 7.5h12.791c5.87 0 11.013 4.168 12.229 9.911l22.286 105.283c2.105 9.945 9.573 17.722 18.951 20.592a22.369 22.369 0 0 0-1.757 8.714c0 12.406 10.093 22.5 22.5 22.5s22.5-10.094 22.5-22.5c0-2.629-.458-5.153-1.29-7.5h33.58a22.38 22.38 0 0 0-1.29 7.5c0 12.406 10.093 22.5 22.5 22.5s22.5-10.094 22.5-22.5c0-2.629-.458-5.153-1.29-7.5h1.79c4.142 0 7.5-3.357 7.5-7.5s-3.358-7.5-7.5-7.5h-111.79c-5.87 0-11.013-4.168-12.229-9.911l-1.924-9.089h37.913l.021.001zm-3.49 41.499c0 4.136-3.364 7.5-7.5 7.5s-7.5-3.364-7.5-7.5 3.364-7.5 7.5-7.5 7.5 3.365 7.5 7.5zm76 0c0 4.136-3.364 7.5-7.5 7.5s-7.5-3.364-7.5-7.5 3.364-7.5 7.5-7.5 7.5 3.365 7.5 7.5zm-27.996-81.5-3.125 25h-34.759l-3.125-25zm-42.884-15-3.125-25h51.009l-3.125 25zm54.875 40 3.125-25h34.145l-5.044 25zm40.297-40h-35.296l3.125-25h37.215zm-113.413-25 3.125 25h-36.09l-5.292-25zm-29.79 40h34.79l3.125 25h-32.623z"></path>
  </g>
</svg>