<svg xmlns="http://www.w3.org/2000/svg" version="1.1" xmlns:xlink="http://www.w3.org/1999/xlink"
  viewBox="0 0 512 512"
  style="enable-background:new 0 0 512 512" xml:space="preserve" class=""><g><path d="M482 363.58V316c0-49.388-15.925-96.331-46.053-135.753-26.743-34.993-63.719-61.83-105.003-76.443C329.795 80.007 310.077 61 286 61h-60c-24.077 0-43.795 19.007-44.944 42.804-41.284 14.613-78.26 41.45-105.003 76.443C45.925 219.669 30 266.612 30 316v47.58C12.541 369.772 0 386.445 0 406c0 24.813 20.187 45 45 45h422c24.813 0 45-20.187 45-45 0-19.555-12.541-36.228-30-42.42zM60 316c0-54.091 23.106-104.728 61-140.855V226c0 8.284 6.716 15 15 15s15-6.716 15-15v-74.383a195.128 195.128 0 0 1 30-15.679V256c0 8.284 6.716 15 15 15s15-6.716 15-15V106c0-8.271 6.729-15 15-15h60c8.271 0 15 6.729 15 15v150c0 8.284 6.716 15 15 15s15-6.716 15-15V135.938a195.304 195.304 0 0 1 30 15.679V226c0 8.284 6.716 15 15 15s15-6.716 15-15v-50.855c37.894 36.127 61 86.764 61 140.855v45H60v-45zm407 105H45c-8.271 0-15-6.729-15-15s6.729-15 15-15h422c8.271 0 15 6.729 15 15s-6.729 15-15 15z"></path></g></svg>