<?xml version="1.0" encoding="UTF-8"?>
<svg version="1.1" xmlns="http://www.w3.org/2000/svg" width="429" height="312">
<path d="M0 0 C1.38769967 -0.00374044 2.77539723 -0.00834353 4.16309148 -0.01373065 C7.96227343 -0.02592759 11.76136711 -0.02570409 15.56056416 -0.02334189 C19.66365539 -0.02293289 23.76671864 -0.03398094 27.86979675 -0.04345703 C35.90358117 -0.06005021 43.93733623 -0.06556583 51.97113635 -0.06668179 C58.50401938 -0.06763313 65.03689275 -0.07174771 71.56977272 -0.07808304 C90.10540589 -0.0956914 108.64101593 -0.10492262 127.17665752 -0.10342209 C128.1753364 -0.10334218 129.17401528 -0.10326227 130.20295715 -0.10317993 C131.70281185 -0.10305729 131.70281185 -0.10305729 133.23296664 -0.10293217 C149.43206424 -0.10211954 165.63106879 -0.12125245 181.83013948 -0.14945666 C198.47667482 -0.17821045 215.12316482 -0.19199556 231.76972562 -0.19026911 C241.11006527 -0.18960604 250.45030739 -0.19506196 259.79062462 -0.21662521 C267.74426854 -0.23486992 275.69777074 -0.23915744 283.65142658 -0.22560637 C287.7057504 -0.21909308 291.75980258 -0.21889977 295.81410027 -0.23631287 C299.5333601 -0.25212198 303.25213469 -0.24910106 306.97138325 -0.2317446 C308.93777664 -0.2272574 310.90418555 -0.24227033 312.87051934 -0.25822389 C329.28430932 -0.13187599 342.12654177 5.72939385 354.00740051 16.84555054 C364.43120876 27.70733392 369.65529325 40.5322709 369.5990448 55.49403381 C369.60357591 56.39007838 369.60810703 57.28612294 369.61277544 58.20932037 C369.62537703 61.19448098 369.62380181 64.17945816 369.62214661 67.16464233 C369.62813456 69.31219211 369.63494072 71.45973973 369.64250183 73.60728455 C369.66014326 79.42982359 369.66485648 85.25230382 369.6661334 91.07486701 C369.66755678 94.71667893 369.67182994 98.35847598 369.67712784 102.00028419 C369.695623 114.71718924 369.70379922 127.43405241 369.70222473 140.15097046 C369.70102395 151.98544265 369.72211533 163.81973228 369.75371206 175.65415829 C369.77990826 185.83024343 369.7905906 196.00626907 369.78931391 206.18238765 C369.7888052 212.25310838 369.79443797 218.32366687 369.81567001 224.39435387 C369.83510827 230.10802249 369.83513855 235.82137505 369.82063675 241.53505516 C369.81855439 243.62431808 369.8232151 245.71360107 369.83535767 247.80282974 C369.94227824 267.4844683 366.62306241 282.11952405 352.75349426 296.94320679 C340.20062995 308.98990721 326.62444732 312.57592149 309.66323853 312.53485107 C308.27553886 312.53859151 306.8878413 312.5431946 305.50014704 312.54858172 C301.70096509 312.56077867 297.90187141 312.56055517 294.10267437 312.55819297 C289.99958313 312.55778396 285.89651988 312.56883201 281.79344177 312.57830811 C273.75965736 312.59490128 265.72590229 312.6004169 257.69210217 312.60153286 C251.15921914 312.6024842 244.62634578 312.60659878 238.09346581 312.61293411 C219.55783264 312.63054248 201.0222226 312.6397737 182.48658101 312.63827316 C181.48790213 312.63819325 180.48922325 312.63811334 179.46028137 312.63803101 C177.96042668 312.63790836 177.96042668 312.63790836 176.43027189 312.63778324 C160.23117429 312.63697062 144.03216974 312.65610352 127.83309904 312.68430774 C111.1865637 312.71306152 94.5400737 312.72684664 77.8935129 312.72512019 C68.55317326 312.72445711 59.21293114 312.72991304 49.87261391 312.75147629 C41.91896998 312.769721 33.96546778 312.77400851 26.01181195 312.76045744 C21.95748813 312.75394415 17.90343595 312.75375084 13.84913826 312.77116394 C10.12987843 312.78697305 6.41110384 312.78395213 2.69185527 312.76659568 C0.72546189 312.76210847 -1.24094703 312.77712141 -3.20728081 312.79307497 C-19.6210708 312.66672707 -32.46330324 306.80545723 -44.34416199 295.68930054 C-54.76797023 284.82751715 -59.99205473 272.00258017 -59.93580627 257.04081726 C-59.94260294 255.69675042 -59.94260294 255.69675042 -59.94953692 254.32553071 C-59.96213851 251.34037009 -59.96056328 248.35539292 -59.95890808 245.37020874 C-59.96489603 243.22265897 -59.9717022 241.07511134 -59.97926331 238.92756653 C-59.99690473 233.10502748 -60.00161795 227.28254725 -60.00289488 221.45998406 C-60.00431825 217.81817215 -60.00859142 214.1763751 -60.01388931 210.53456688 C-60.03238448 197.81766183 -60.04056069 185.10079867 -60.03898621 172.38388062 C-60.03778542 160.54940842 -60.0588768 148.71511879 -60.09047353 136.88069278 C-60.11666974 126.70460764 -60.12735207 116.528582 -60.12607539 106.35246342 C-60.12556668 100.28174269 -60.13119944 94.21118421 -60.15243149 88.14049721 C-60.17186974 82.42682858 -60.17190003 76.71347603 -60.15739822 70.99979591 C-60.15531587 68.910533 -60.15997657 66.82125 -60.17211914 64.73202133 C-60.27903971 45.05038277 -56.95982389 30.41532703 -43.09025574 15.59164429 C-30.53739143 3.54494386 -16.96120879 -0.04107042 0 0 Z M-36.66838074 29.26742554 C-45.38904013 39.91580963 -46.82990325 51.51032791 -46.80209351 64.85501099 C-46.80435906 65.67023893 -46.80662462 66.48546687 -46.80895883 67.32539868 C-46.8152405 70.031024 -46.81447325 72.73659847 -46.81364441 75.44223022 C-46.81663955 77.39288395 -46.8200429 79.34353709 -46.82382202 81.29418945 C-46.83263022 86.57535586 -46.8349988 91.85650605 -46.83563781 97.1376791 C-46.83635013 100.44229487 -46.83848791 103.74690655 -46.84113503 107.0515213 C-46.85037803 118.5948462 -46.85447123 130.13815957 -46.85368347 141.68148804 C-46.85308301 152.41790989 -46.86363135 163.15428144 -46.87942713 173.89069057 C-46.8925305 183.12836846 -46.89786619 192.36602998 -46.89722806 201.60371709 C-46.89697389 207.1121086 -46.89978028 212.62045539 -46.91040611 218.12883759 C-46.9201342 223.31304548 -46.92013414 228.49716633 -46.91288948 233.68137741 C-46.91184947 235.57551832 -46.91417156 237.46966479 -46.92024994 239.36379623 C-46.97553919 257.79837681 -46.35934385 272.97869457 -33.05900574 287.00570679 C-20.70587985 298.69273275 -6.91405805 299.42217023 9.36097717 299.40113831 C10.65398074 299.40340386 11.94698431 299.40566942 13.2791698 299.40800363 C16.84804304 299.41409079 20.41689275 299.41399169 23.98576999 299.41280925 C27.84275084 299.41260446 31.69972429 299.41813145 35.55670166 299.42286682 C43.10573416 299.43115696 50.65475885 299.43392092 58.20379552 299.4344792 C64.34286808 299.43495513 70.48193808 299.43701372 76.62100983 299.44017982 C94.04398068 299.44898188 111.46694538 299.4535999 128.88991848 299.45284935 C129.82829204 299.45280939 130.7666656 299.45276944 131.73347473 299.45272827 C132.67300006 299.45268739 133.6125254 299.45264651 134.5805212 299.45260439 C149.80308037 299.45219803 165.02561481 299.46176617 180.24816683 299.47586664 C195.895798 299.49024596 211.54341712 299.49713597 227.19105506 299.49627286 C235.96908346 299.49594143 244.74708591 299.49866477 253.52510834 299.50945091 C260.99926505 299.5185764 268.47338406 299.52071437 275.94754395 299.51394149 C279.75674463 299.51068663 283.56587304 299.51058202 287.37506676 299.51929474 C291.51487422 299.52866582 295.65451586 299.52235681 299.79432678 299.5146637 C300.98375138 299.51980726 302.17317597 299.52495082 303.39864373 299.53025025 C319.69146899 299.46362266 332.01696394 297.08658067 344.06990051 285.65805054 C354.51920159 274.61319344 356.49593151 262.36319265 356.46533203 247.67984009 C356.46759759 246.86461215 356.46986314 246.04938421 356.47219735 245.20945239 C356.47847903 242.50382708 356.47771177 239.79825261 356.47688293 237.09262085 C356.47987808 235.14196712 356.48328142 233.19131399 356.48706055 231.24066162 C356.49586875 225.95949521 356.49823732 220.67834502 356.49887633 215.39717197 C356.49958866 212.09255621 356.50172644 208.78794452 356.50437355 205.48332977 C356.51361656 193.94000488 356.51770976 182.39669151 356.516922 170.85336304 C356.51632154 160.11694119 356.52686987 149.38056964 356.54266566 138.64416051 C356.55576902 129.40648261 356.56110472 120.1688211 356.56046659 110.93113399 C356.56021242 105.42274247 356.56301881 99.91439569 356.57364464 94.40601349 C356.58337273 89.22180559 356.58337267 84.03768475 356.57612801 78.85347366 C356.57508799 76.95933275 356.57741008 75.06518628 356.58348846 73.17105484 C356.63877772 54.73647427 356.02258237 39.5561565 342.72224426 25.52914429 C330.36911838 13.84211832 316.57729657 13.11268085 300.30226135 13.13371277 C298.362756 13.13031443 298.362756 13.13031443 296.38406873 13.12684745 C292.81519549 13.12076029 289.24634578 13.12085938 285.67746854 13.12204182 C281.82048768 13.12224661 277.96351423 13.11671963 274.10653687 13.11198425 C266.55750437 13.10369411 259.00847968 13.10093015 251.459443 13.10037187 C245.32037044 13.09989594 239.18130045 13.09783735 233.0422287 13.09467125 C215.61925785 13.08586919 198.19629314 13.08125118 180.77332005 13.08200172 C179.3657597 13.08206166 179.3657597 13.08206166 177.92976379 13.0821228 C176.99023846 13.08216368 176.05071313 13.08220456 175.08271733 13.08224668 C159.86015815 13.08265304 144.63762372 13.07308491 129.4150717 13.05898444 C113.76744052 13.04460511 98.11982141 13.03771511 82.47218347 13.03857821 C73.69415507 13.03890964 64.91615262 13.03618631 56.13813019 13.02540016 C48.66397347 13.01627468 41.18985447 13.0141367 33.71569458 13.02090959 C29.90649389 13.02416445 26.09736548 13.02426905 22.28817177 13.01555634 C18.14836431 13.00618526 14.00872266 13.01249427 9.86891174 13.02018738 C8.67948715 13.01504381 7.49006256 13.00990025 6.26459479 13.00460082 C-11.41791291 13.07691136 -24.25713008 16.1487979 -36.66838074 29.26742554 Z " fill="#000000" transform="translate(59.66838073730469,-0.267425537109375)"/>
<path d="M0 0 C0.86129731 -0.00445784 1.72259462 -0.00891569 2.60999185 -0.01350862 C3.5618198 -0.01332426 4.51364774 -0.01313989 5.49431896 -0.01294994 C6.50113742 -0.01662663 7.50795587 -0.02030332 8.54528397 -0.02409142 C11.94083223 -0.03516152 15.33634993 -0.03897771 18.73191357 -0.04278088 C21.15756357 -0.04904295 23.58321261 -0.05568952 26.00886059 -0.0626936 C33.30362419 -0.08194502 40.59838528 -0.09252496 47.89316657 -0.10142139 C51.32691128 -0.10580289 54.76065444 -0.11117004 58.19439793 -0.11641026 C69.60625704 -0.13342294 81.01811519 -0.14791781 92.42998505 -0.155159 C95.39211878 -0.15706894 98.35425251 -0.15898927 101.31638622 -0.16094494 C102.42074516 -0.16167055 102.42074516 -0.16167055 103.54741438 -0.16241082 C115.47793196 -0.17071373 127.40834936 -0.19605483 139.33882318 -0.22852562 C151.58259703 -0.26157793 163.82631993 -0.27960608 176.07013863 -0.28280324 C182.94664482 -0.28496999 189.8230049 -0.29374267 196.69946766 -0.31926441 C203.16645376 -0.34321072 209.63324804 -0.34680857 216.10027218 -0.33650303 C218.47670459 -0.33600575 220.85314963 -0.34238243 223.22954273 -0.35605907 C226.46851146 -0.37366024 229.70652273 -0.36672942 232.94549084 -0.35352612 C233.89062662 -0.36449536 234.8357624 -0.37546461 235.80953866 -0.38676625 C240.04473207 -0.34495187 242.30448264 -0.24303816 245.97068596 2.03970528 C249.23574365 5.56537144 249.24078673 8.22275027 249.20334911 12.87250233 C248.77382236 16.18844888 247.30113683 17.88409735 244.91038036 20.13422108 C242.62511054 21.27685599 241.36031124 21.26236045 238.82076073 21.26844215 C237.95946342 21.2729 237.09816611 21.27735784 236.21076888 21.28195077 C234.78302696 21.28167423 234.78302696 21.28167423 233.32644176 21.2813921 C231.81621408 21.28690713 231.81621408 21.28690713 230.27547675 21.29253358 C226.87992849 21.30360368 223.4844108 21.30741986 220.08884716 21.31122303 C217.66319715 21.3174851 215.23754812 21.32413167 212.81190014 21.33113575 C205.51713654 21.35038717 198.22237545 21.36096711 190.92759416 21.36986354 C187.49384945 21.37424504 184.06010629 21.37961219 180.6263628 21.38485241 C169.21450368 21.4018651 157.80264553 21.41635997 146.39077568 21.42360115 C143.42864194 21.4255111 140.46650821 21.42743142 137.5043745 21.42938709 C136.40001556 21.4301127 136.40001556 21.4301127 135.27334634 21.43085297 C123.34282876 21.43915589 111.41241137 21.46449699 99.48193755 21.49696777 C87.2381637 21.53002009 74.9944408 21.54804823 62.75062209 21.55124539 C55.87411591 21.55341215 48.99775583 21.56218482 42.12129307 21.58770657 C35.65430697 21.61165288 29.18751269 21.61525073 22.72048855 21.60494518 C20.34405614 21.6044479 17.9676111 21.61082458 15.59121799 21.62450123 C12.35224927 21.6421024 9.114238 21.63517158 5.87526989 21.62196827 C4.93013411 21.63293752 3.98499833 21.64390676 3.01122206 21.65520841 C-1.22397135 21.61339403 -3.48372191 21.51148031 -7.14992523 19.22873688 C-10.41498293 15.70307071 -10.420026 13.04569189 -10.38258839 8.39593983 C-9.95306163 5.07999328 -8.4803761 3.38434481 -6.08961964 1.13422108 C-3.80434981 -0.00841384 -2.53955051 0.0060817 0 0 Z " fill="#000000" transform="translate(95.08961963653564,264.86577892303467)"/>
</svg>
