<svg viewBox="0 0 336 335"
  xmlns="http://www.w3.org/2000/svg"
  xmlns:xlink="http://www.w3.org/1999/xlink">
  <g stroke="none" transform="matrix(0.1 0 0 -0.1 0 335)">
    <path d="M1515 3339C852 3267 296 2823 90 2201 41 2055 23 1963 8 1799 -34 1326 146 843 495 495 743 247 1049 87 1395 24 1534 -1 1826 -1 1965 24 2316 88 2616 245 2871 499 3115 744 3271 1043 3336 1395 3353 1486 3355 1546 3353 2035 3352 2475 3335 3310 3327 3316 3326 3317 3127 3323 2885 3329 2245 3344 1607 3349 1515 3339ZM1225 2446C1478 2354 1625 2091 1569 1828 1528 1636 1353 1461 1162 1421 830 1352 521 1602 520 1940 520 2089 569 2209 676 2317 821 2465 1034 2515 1225 2446ZM2520 2452C2609 2421 2660 2391 2717 2337 2942 2124 2951 1781 2735 1565 2530 1360 2212 1356 2000 1556 1778 1765 1774 2104 1990 2320 2131 2461 2341 2514 2520 2452Z" stroke="none" stroke-width="1" stroke-linecap="butt" fill-opacity="1"/>
  </g>
</svg>