<svg version="1.1" viewBox="0 0 150 150"
  xmlns="http://www.w3.org/2000/svg"
  xmlns:xlink="http://www.w3.org/1999/xlink">
  <g transform="matrix(0.1,0,0,-0.1,0,150)">
    <path d=" M 621 1489 C 545 1476 438 1437 372 1398 C 299 1355 145 1201 102 1128 C -14 931 -31 674 59 460 C 223 67 693 -111 1075 75 C 1227 149 1351 273 1425 423 C 1490 557 1495 592 1495 910 C 1495 1188 1494 1197 1471 1255 C 1438 1338 1338 1438 1255 1471 C 1198 1494 1184 1495 935 1496 C 792 1497 651 1494 621 1489 Z M 1067 1111 C 1144 1075 1188 970 1161 887 C 1113 743 926 716 843 841 C 820 876 815 894 815 945 C 815 1022 847 1077 912 1109 C 965 1135 1012 1135 1067 1111 Z M 588 1099 C 675 1056 714 946 671 862 C 639 799 581 765 505 765 C 425 765 368 800 338 867 C 270 1022 433 1173 588 1099 Z"/>
  </g>
</svg>