<?xml version="1.0" encoding="UTF-8"?>
<svg version="1.1" xmlns="http://www.w3.org/2000/svg" width="504" height="305">
<path d="M0 0 C0.72035219 -0.00350607 1.44070439 -0.00701215 2.18288544 -0.01062447 C4.5913786 -0.01991204 6.99962856 -0.01502203 9.4081316 -0.01015663 C11.15453803 -0.01389423 12.90094278 -0.01849619 14.64734489 -0.02388728 C19.44264858 -0.03611925 24.23788251 -0.03585657 29.03319824 -0.03349853 C34.20650646 -0.03309041 39.3797923 -0.04412908 44.5530901 -0.05361366 C54.6875495 -0.07022603 64.82198564 -0.07572333 74.95645752 -0.07683842 C83.19513143 -0.07778884 91.43379766 -0.08189883 99.67246914 -0.08823967 C123.03344008 -0.10585319 146.39439265 -0.11507844 169.75537028 -0.11357872 C171.64443371 -0.11345885 171.64443371 -0.11345885 173.57166004 -0.11333656 C174.83257447 -0.1132548 176.0934889 -0.11317304 177.39261285 -0.1130888 C197.82478286 -0.11227601 218.25687913 -0.1314118 238.68902781 -0.1596133 C259.67138288 -0.18834553 280.65370199 -0.20215338 301.63607723 -0.20042574 C313.41493138 -0.19976193 325.19370824 -0.20525036 336.97254467 -0.22678185 C347.0020598 -0.24499813 357.03146262 -0.24933729 367.06098714 -0.235763 C372.17639915 -0.2292355 377.29159571 -0.2291084 382.40698719 -0.2464695 C387.09458885 -0.26221481 391.78180448 -0.25932159 396.46939681 -0.24190123 C398.16050871 -0.23883455 399.85164952 -0.24245116 401.54272731 -0.25362138 C417.15583715 -0.34987902 430.17482287 2.72458841 442.02698231 13.51117516 C451.28068637 23.15173975 456.87584473 34.85271506 456.81784534 48.30736351 C456.82237646 49.08891975 456.82690757 49.87047598 456.83157599 50.67571574 C456.84417722 53.27937725 456.84260239 55.88282843 456.84094715 58.48651695 C456.84693516 60.35968353 456.85374134 62.23284764 456.86130238 64.10600853 C456.87894399 69.18476341 456.88365705 74.26345086 456.88493395 79.34223342 C456.8863574 82.51919359 456.89063073 85.69613672 456.89592838 88.87309265 C456.91442415 99.96787793 456.92259976 111.06261521 456.92102528 122.15741539 C456.91982472 132.48035073 456.94091135 142.80307671 456.9725126 153.1259591 C456.99871551 162.00350666 457.00939085 170.88098602 457.00811446 179.75857192 C457.00760591 185.05407215 457.01322946 190.34938634 457.03447056 195.64484787 C457.05392003 200.62966599 457.05393166 205.61412191 457.03943729 210.59895325 C457.03735625 212.42095154 457.04200774 214.2429729 457.05415821 216.06493187 C457.15441529 232.14970873 454.51064024 245.41189672 443.29651356 257.73383141 C433.85272159 266.79865901 422.30590048 272.49999039 409.10083961 272.51453781 C408.38048742 272.51804389 407.66013523 272.52154996 406.91795418 272.52516228 C404.50946102 272.53444985 402.10121106 272.52955984 399.69270802 272.52469444 C397.94630159 272.52843204 396.19989683 272.533034 394.45349473 272.53842509 C389.65819104 272.55065706 384.86295711 272.55039438 380.06764138 272.54803634 C374.89433316 272.54762822 369.72104731 272.5586669 364.54774952 272.56815147 C354.41329012 272.58476384 344.27885398 272.59026114 334.1443821 272.59137623 C325.90570819 272.59232665 317.66704196 272.59643664 309.42837048 272.60277748 C286.06739953 272.62039101 262.70644696 272.62961625 239.34546933 272.62811653 C237.4564059 272.62799666 237.4564059 272.62799666 235.52917957 272.62787437 C234.26826515 272.62779261 233.00735072 272.62771085 231.70822676 272.62762661 C211.27605676 272.62681382 190.84396049 272.64594961 170.41181181 272.67415111 C149.42945674 272.70288335 128.44713763 272.71669119 107.46476239 272.71496356 C95.68590824 272.71429974 83.90713137 272.71978817 72.12829494 272.74131966 C62.09877981 272.75953595 52.069377 272.7638751 42.03985248 272.75030081 C36.92444047 272.74377331 31.80924391 272.74364621 26.69385242 272.76100731 C22.00625077 272.77675262 17.31903514 272.7738594 12.63144281 272.75643905 C10.94033091 272.75337236 9.24919009 272.75698897 7.5581123 272.7681592 C-8.05499754 272.86441683 -21.07398325 269.7899494 -32.92614269 259.00336266 C-42.17984675 249.36279806 -47.77500512 237.66182275 -47.71700573 224.2071743 C-47.72153684 223.42561806 -47.72606796 222.64406183 -47.73073637 221.83882207 C-47.7433376 219.23516056 -47.74176278 216.63170938 -47.74010754 214.02802086 C-47.74609555 212.15485428 -47.75290172 210.28169017 -47.76046276 208.40852928 C-47.77810438 203.3297744 -47.78281743 198.25108695 -47.78409433 193.17230439 C-47.78551778 189.99534422 -47.78979112 186.81840109 -47.79508877 183.64144516 C-47.81358454 172.54665988 -47.82176014 161.45192261 -47.82018566 150.35712242 C-47.81898511 140.03418708 -47.84007174 129.7114611 -47.87167299 119.38857871 C-47.89787589 110.51103115 -47.90855124 101.6335518 -47.90727484 92.75596589 C-47.9067663 87.46046566 -47.91238984 82.16515147 -47.93363094 76.86968994 C-47.95308042 71.88487182 -47.95309205 66.9004159 -47.93859768 61.91558456 C-47.93651664 60.09358627 -47.94116813 58.27156491 -47.9533186 56.44960594 C-48.05357568 40.36482908 -45.40980062 27.1026411 -34.19567394 14.78070641 C-24.75188198 5.7158788 -13.20506087 0.01454742 0 0 Z M-25.69567394 26.03461266 C-35.17244934 38.04415653 -34.74834964 52.64439835 -34.70836926 67.21820641 C-34.71108502 68.89506748 -34.71464922 70.57192736 -34.71898937 72.24878502 C-34.72804603 76.76942731 -34.72459708 81.28997752 -34.7182312 85.81062126 C-34.71313617 90.56155695 -34.71787233 95.31248522 -34.72100353 100.06342125 C-34.72463302 108.03885869 -34.71987085 116.01425899 -34.71032238 123.98969078 C-34.6994398 133.1851194 -34.7029661 142.3804593 -34.71397519 151.57588577 C-34.72307712 159.49812576 -34.72431917 167.42033917 -34.71909785 175.3425827 C-34.7159941 180.06226745 -34.71552467 184.78191062 -34.72217083 189.50159264 C-34.7279861 193.94058661 -34.72387158 198.37946718 -34.71238232 202.81844902 C-34.70975795 204.43887456 -34.71046234 206.0593098 -34.71490765 207.67973137 C-34.75216604 222.65189922 -34.46691709 236.99989469 -23.76208019 248.56976891 C-11.63307952 259.79192841 3.65656228 259.5585332 19.25012684 259.51123619 C20.91835192 259.51354434 22.58657598 259.51672323 24.25479794 259.52069068 C28.81078219 259.52899862 33.36668209 259.52493169 37.92266655 259.51871824 C42.84707222 259.51417831 47.77146376 259.52118514 52.69586658 259.52667809 C62.33166693 259.5355573 71.96743607 259.53365663 81.60323763 259.5278528 C89.43656609 259.52333053 97.26988582 259.52272586 105.10321522 259.52490044 C106.7774483 259.52536014 106.7774483 259.52536014 108.48550427 259.52582912 C110.75316509 259.52646859 113.02082591 259.52711702 115.28848672 259.5277743 C136.53735473 259.53347329 157.78620548 259.52692648 179.03507066 259.51617357 C197.25569048 259.50723846 215.47628482 259.50879062 233.69690418 259.51801109 C254.87130306 259.52872134 276.0456868 259.53292401 297.22008801 259.52678657 C299.4792668 259.52614949 301.7384456 259.52552075 303.9976244 259.52490044 C305.66483262 259.52443761 305.66483262 259.52443761 307.36572182 259.52396543 C315.18691473 259.52224076 323.00809802 259.52514869 330.82928944 259.52985954 C340.36459095 259.53547675 349.89985954 259.53393424 359.4351573 259.52329805 C364.29738552 259.51805268 369.15955891 259.51596526 374.02178669 259.52259636 C378.47779247 259.52858141 382.9336929 259.52523872 387.38968921 259.51464126 C388.99653099 259.51241803 390.60338178 259.51351912 392.21021771 259.51839283 C407.1061036 259.56008711 421.35799751 259.2145101 432.86291981 248.56976891 C444.14754539 236.37325439 443.85220647 220.96998602 443.80920887 205.29633141 C443.81192464 203.61947033 443.81548883 201.94261045 443.81982899 200.26575279 C443.82888565 195.7451105 443.82543669 191.22456029 443.81907082 186.70391655 C443.81397579 181.95298086 443.81871195 177.20205259 443.82184315 172.45111656 C443.82547264 164.47567912 443.82071046 156.50027882 443.81116199 148.52484703 C443.80027942 139.32941841 443.80380572 130.13407851 443.81481481 120.93865204 C443.82391674 113.01641205 443.82515878 105.09419864 443.81993747 97.17195511 C443.81683371 92.45227036 443.81636429 87.73262719 443.82301044 83.01294518 C443.82882572 78.5739512 443.8247112 74.13507063 443.81322193 69.69608879 C443.81059757 68.07566325 443.81130195 66.45522801 443.81574726 64.83480644 C443.85300565 49.86263859 443.5677567 35.51464312 432.86291981 23.94476891 C420.73391913 12.7226094 405.44427733 12.95600461 389.85071278 13.00330162 C388.1824877 13.00099347 386.51426364 12.99781458 384.84604168 12.99384713 C380.29005742 12.98553919 375.73415753 12.98960612 371.17817307 12.99581957 C366.2537674 13.0003595 361.32937586 12.99335267 356.40497303 12.98785973 C346.76917268 12.97898051 337.13340354 12.98088118 327.49760199 12.98668501 C319.66427352 12.99120728 311.83095379 12.99181195 303.9976244 12.98963737 C302.88146901 12.98933091 301.76531362 12.98902444 300.61533535 12.98870869 C298.34767453 12.98806922 296.08001371 12.98742079 293.8123529 12.98676351 C272.56348488 12.98106452 251.31463414 12.98761133 230.06576896 12.99836424 C211.84514913 13.00729935 193.6245548 13.00574719 175.40393543 12.99652672 C154.22953656 12.98581647 133.05515281 12.98161381 111.88075161 12.98775125 C109.62157281 12.98838832 107.36239402 12.98901707 105.10321522 12.98963737 C103.43600699 12.9901002 103.43600699 12.9901002 101.73511779 12.99057238 C93.91392488 12.99229705 86.0927416 12.98938912 78.27155018 12.98467827 C68.73624867 12.97906106 59.20098007 12.98060357 49.66568232 12.99123976 C44.8034541 12.99648513 39.9412807 12.99857255 35.07905293 12.99194145 C30.62304714 12.9859564 26.16714671 12.98929909 21.71115041 12.99989656 C20.10430862 13.00211978 18.49745783 13.00101869 16.8906219 12.99614498 C0.8785923 12.95132657 -14.15211259 13.55823827 -25.69567394 26.03461266 Z " fill="#000000" transform="translate(47.44958019256592,-0.25726890563964844)"/>
<path d="M0 0 C0.85433052 -0.00384115 1.70866104 -0.00768229 2.58888036 -0.01163983 C3.53292641 -0.01077335 4.47697246 -0.00990687 5.44962597 -0.00901413 C6.94760299 -0.01347081 6.94760299 -0.01347081 8.47584218 -0.01801753 C11.84375464 -0.02673381 15.21163169 -0.02821524 18.57955456 -0.02970505 C20.98550016 -0.03433114 23.39144503 -0.03935552 25.79738903 -0.04475021 C32.34904943 -0.05789614 38.90070242 -0.06435985 45.45237279 -0.06876087 C49.54200607 -0.07152177 53.63163698 -0.07575885 57.72126865 -0.08026505 C69.04048324 -0.09245926 80.35969592 -0.1027581 91.67891693 -0.10614014 C92.76602199 -0.10646949 92.76602199 -0.10646949 93.87508876 -0.10680549 C94.60157752 -0.10702377 95.32806628 -0.10724204 96.07656986 -0.10746694 C97.54875616 -0.1079104 99.02094247 -0.10835697 100.49312878 -0.10880661 C101.58851587 -0.10913875 101.58851587 -0.10913875 102.706032 -0.10947761 C114.53953215 -0.11342583 126.37297074 -0.1308799 138.2064471 -0.15416613 C150.35078029 -0.17787149 162.49508258 -0.19034162 174.63943928 -0.19150805 C181.46002503 -0.1924253 188.28053057 -0.19819006 195.10109425 -0.21632767 C201.51553082 -0.23332492 207.92985568 -0.23498735 214.34430981 -0.22618866 C216.70138678 -0.22541569 219.05847179 -0.22979495 221.4155283 -0.23964691 C224.6280869 -0.25228935 227.84009909 -0.24653137 231.05265331 -0.23606491 C232.45868414 -0.24814952 232.45868414 -0.24814952 233.89311963 -0.26047826 C238.71313328 -0.22363664 242.0721831 -0.07783242 245.9416151 3.13142776 C248.76530081 7.36695632 248.60815267 11.15620091 247.9416151 16.13142776 C246.14514656 19.06565972 244.997508 20.60348132 241.9416151 22.13142776 C240.59145126 22.22645972 239.23673244 22.26057802 237.88323021 22.26285553 C237.02889969 22.26669667 236.17456917 22.27053782 235.29434985 22.27449536 C234.3503038 22.27362888 233.40625775 22.2727624 232.43360424 22.27186966 C230.93562722 22.27632634 230.93562722 22.27632634 229.40738803 22.28087306 C226.03947557 22.28958934 222.67159852 22.29107077 219.30367565 22.29256058 C216.89773005 22.29718667 214.49178518 22.30221105 212.08584118 22.30760574 C205.53418078 22.32075167 198.98252778 22.32721538 192.43085742 22.3316164 C188.34122414 22.3343773 184.25159323 22.33861438 180.16196156 22.34312057 C168.84274697 22.35531479 157.52353429 22.36561363 146.20431328 22.36899567 C145.11720822 22.36932502 145.11720822 22.36932502 144.00814145 22.36966102 C142.91840831 22.36998843 142.91840831 22.36998843 141.80666035 22.37032247 C140.33447405 22.37076593 138.86228774 22.3712125 137.39010143 22.37166214 C136.29471434 22.37199428 136.29471434 22.37199428 135.17719821 22.37233314 C123.34369805 22.37628136 111.51025947 22.39373543 99.67678311 22.41702166 C87.53244992 22.44072702 75.38814763 22.45319715 63.24379092 22.45436358 C56.42320518 22.45528083 49.60269964 22.46104559 42.78213596 22.4791832 C36.36769939 22.49618045 29.95337453 22.49784288 23.5389204 22.48904419 C21.18184343 22.48827122 18.82475842 22.49265048 16.46770191 22.50250244 C13.25514331 22.51514488 10.04313112 22.5093869 6.8305769 22.49892044 C5.42454607 22.51100505 5.42454607 22.51100505 3.99011058 22.52333379 C-0.82990307 22.48649217 -4.18895289 22.34068795 -8.0583849 19.13142776 C-10.8820706 14.89589921 -10.72492246 11.10665462 -10.0583849 6.13142776 C-7.26749641 1.57297657 -5.24063138 0.0088183 0 0 Z " fill="#000000" transform="translate(133.0583848953247,282.8685722351074)"/>
</svg>
