<?xml version="1.0" encoding="UTF-8"?>
<svg version="1.1" xmlns="http://www.w3.org/2000/svg" width="189" height="312">
<path d="M0 0 C1.11301987 -0.00571014 2.22603973 -0.01142029 3.37278748 -0.01730347 C4.58948624 -0.01842133 5.806185 -0.01953918 7.05975342 -0.02069092 C8.34471207 -0.02565582 9.62967072 -0.03062073 10.9535675 -0.03573608 C14.47648221 -0.04883781 17.99937787 -0.05530083 21.52231312 -0.05974674 C23.72548744 -0.06268143 25.92865659 -0.06678701 28.13182831 -0.07125092 C35.03135155 -0.08492078 41.93086295 -0.0945896 48.8303988 -0.09845281 C56.78302482 -0.10293064 64.73547872 -0.12046783 72.68805242 -0.1494534 C78.84277548 -0.17110393 84.99745023 -0.1811589 91.15221095 -0.18249393 C94.82453584 -0.18353966 98.49669881 -0.18939779 102.16898346 -0.20731354 C106.26939759 -0.22692914 110.36945372 -0.22249186 114.46990967 -0.21600342 C115.67851151 -0.2252182 116.88711334 -0.23443298 118.13233948 -0.243927 C129.31679699 -0.18852542 138.0482601 3.02402598 146.28533936 10.80450439 C151.9036887 17.00308629 155.64139217 24.15263098 155.65504837 32.60833359 C155.65888952 33.50311346 155.66273066 34.39789333 155.6666882 35.31978774 C155.66582172 36.29876218 155.66495524 37.27773662 155.6640625 38.28637695 C155.66703362 39.32953953 155.67000474 40.37270211 155.6730659 41.44747567 C155.68175976 44.95418862 155.68326174 48.46086745 155.68475342 51.96759033 C155.68938109 54.47733636 155.69440569 56.98708168 155.69979858 59.49682617 C155.71292924 66.3233553 155.71940552 73.14987317 155.72380924 79.97641277 C155.72657293 84.23995526 155.73081052 88.50349548 155.73531342 92.76703644 C155.74750522 104.57443474 155.75780466 116.38183123 155.76118851 128.18923569 C155.76151786 129.32256894 155.76151786 129.32256894 155.76185386 130.47879781 C155.76207214 131.23614842 155.76229041 131.99349903 155.76251531 132.77379966 C155.76295877 134.30844863 155.76340533 135.84309761 155.76385498 137.37774658 C155.76418713 138.51960192 155.76418713 138.51960192 155.76452598 139.68452504 C155.76847331 152.01702601 155.78592573 164.34946787 155.8092145 176.68194601 C155.83293857 189.34729261 155.84539084 202.01260957 155.84655643 214.67797875 C155.8474726 221.78758734 155.85321042 228.89711889 155.87137604 236.00670624 C155.88840391 242.69451466 155.89002177 249.38215205 155.88123703 256.06998444 C155.8804656 258.52416881 155.88482321 260.97836099 155.89469528 263.43252563 C155.90738603 266.7840491 155.90155311 270.13505245 155.89111328 273.48657227 C155.90319789 274.9416496 155.90319789 274.9416496 155.91552663 276.42612243 C155.84005901 286.79269614 152.00121533 295.34139208 144.85955811 302.90216064 C138.22754478 308.91336907 131.01023391 312.25330377 122.04724121 312.28088379 C120.93422134 312.28659393 119.82120148 312.29230408 118.67445374 312.29818726 C117.45775497 312.29930511 116.24105621 312.30042297 114.98748779 312.30157471 C113.06004982 312.30902206 113.06004982 312.30902206 111.09367371 312.31661987 C107.570759 312.3297216 104.04786334 312.33618462 100.52492809 312.34063053 C98.32175378 312.34356522 96.11858462 312.3476708 93.9154129 312.3521347 C87.01588966 312.36580457 80.11637826 312.37547339 73.21684241 312.3793366 C65.26421639 312.38381443 57.31176249 312.40135162 49.3591888 312.43033719 C43.20446573 312.45198772 37.04979098 312.46204269 30.89503026 312.46337771 C27.22270537 312.46442345 23.5505424 312.47028158 19.87825775 312.48819733 C15.77784362 312.50781293 11.67778749 312.50337565 7.57733154 312.49688721 C6.36872971 312.50610199 5.16012787 312.51531677 3.91490173 312.52481079 C-7.26955578 312.46940921 -16.00101889 309.25685781 -24.23809814 301.47637939 C-29.85644749 295.2777975 -33.59415096 288.12825281 -33.60780716 279.6725502 C-33.6116483 278.77777033 -33.61548945 277.88299046 -33.61944699 276.96109605 C-33.61858051 275.98212161 -33.61771403 275.00314717 -33.61682129 273.99450684 C-33.62127797 272.42976297 -33.62127797 272.42976297 -33.62582469 270.83340812 C-33.63451855 267.32669517 -33.63602052 263.82001634 -33.63751221 260.31329346 C-33.64213988 257.80354743 -33.64716448 255.29380211 -33.65255737 252.78405762 C-33.66568803 245.95752849 -33.67216431 239.13101062 -33.67656803 232.30447102 C-33.67933172 228.04092853 -33.68356931 223.77738831 -33.6880722 219.51384735 C-33.70026401 207.70644905 -33.71056345 195.89905256 -33.7139473 184.0916481 C-33.71416686 183.3360926 -33.71438643 182.5805371 -33.71461265 181.80208598 C-33.71483093 181.04473537 -33.7150492 180.28738476 -33.7152741 179.50708413 C-33.71571756 177.97243516 -33.71616412 176.43778618 -33.71661377 174.90313721 C-33.7168352 174.14190031 -33.71705663 173.38066342 -33.71728477 172.59635875 C-33.7212321 160.26385778 -33.73868451 147.93141592 -33.76197329 135.59893778 C-33.78569736 122.93359117 -33.79814963 110.26827422 -33.79931521 97.60290504 C-33.80023139 90.49329645 -33.80596921 83.38376489 -33.82413483 76.27417755 C-33.84116269 69.58636913 -33.84278056 62.89873174 -33.83399582 56.21089935 C-33.83322439 53.75671497 -33.83758199 51.3025228 -33.84745407 48.84835815 C-33.86014482 45.49683468 -33.8543119 42.14583134 -33.84387207 38.79431152 C-33.85192847 37.82425997 -33.85998488 36.85420842 -33.86828542 35.85476136 C-33.7928178 25.48818765 -29.95397412 16.93949171 -22.81231689 9.37872314 C-16.18030357 3.36751472 -8.9629927 0.02758002 0 0 Z M-15.22637939 22.07794189 C-20.6111276 29.4071825 -20.62501663 37.14067854 -20.61009216 45.91273499 C-20.61235772 46.89156401 -20.61462328 47.87039303 -20.61695749 48.87888354 C-20.62328321 52.15594171 -20.62246903 55.43295837 -20.62164307 58.71002197 C-20.62463545 61.06080682 -20.62803816 63.41159117 -20.63182068 65.76237488 C-20.64065683 72.14672041 -20.64299863 78.53105255 -20.64363647 84.9154036 C-20.64446644 89.57395279 -20.64736603 94.23249899 -20.65047294 98.89104712 C-20.65877539 111.42164662 -20.66251551 123.95223902 -20.66180321 136.48284117 C-20.66176325 137.19396318 -20.6617233 137.90508519 -20.66168213 138.63775635 C-20.66164125 139.34975009 -20.66160037 140.06174383 -20.66155825 140.79531314 C-20.66115188 152.33161536 -20.67071987 163.86788493 -20.6848205 175.4041777 C-20.69919617 187.25937353 -20.70609002 199.11455345 -20.70522672 210.96975821 C-20.70489516 217.62159833 -20.70781966 224.27340835 -20.71840477 230.92524147 C-20.72808957 237.18214642 -20.72816224 243.43897911 -20.72088814 249.69588661 C-20.71984278 251.99000657 -20.72220228 254.28413103 -20.7282486 256.57824326 C-20.73597828 259.7146462 -20.73131709 262.8508002 -20.72361755 265.98719788 C-20.72876112 266.89071718 -20.73390468 267.79423648 -20.73920411 268.72513515 C-20.69045765 277.73747401 -19.74440773 285.91595099 -13.05841064 292.54669189 C-5.12875195 299.55903788 3.75920375 299.29000608 13.80218506 299.28570557 C15.49356598 299.29074348 15.49356598 299.29074348 17.21911621 299.29588318 C20.94172268 299.30537152 24.66428406 299.30733525 28.38690186 299.30841064 C30.97993488 299.31162473 33.57296772 299.31498892 36.16600037 299.3184967 C41.60056048 299.32448271 47.03510277 299.32638004 52.46966553 299.32574463 C58.73396226 299.32514438 64.99817273 299.33568914 71.26244766 299.35148829 C77.30766111 299.36618678 83.35282806 299.36973141 89.39806175 299.3691349 C91.96121765 299.37031288 94.52437422 299.37472439 97.08751869 299.38246727 C100.67737552 299.39229621 104.26701196 299.38937747 107.85687256 299.38336182 C108.90912521 299.38898132 109.96137787 299.39460083 111.04551697 299.40039062 C120.44760548 299.36048102 128.97668069 298.73360631 135.92987061 291.72247314 C142.5821217 284.20001478 142.67358988 275.9231254 142.65733337 266.3681488 C142.66073171 264.89990527 142.66073171 264.89990527 142.6641987 263.40200025 C142.67052442 260.12494208 142.66971024 256.84792541 142.66888428 253.57086182 C142.67187666 251.22007697 142.67527937 248.86929262 142.67906189 246.51850891 C142.68789804 240.13416338 142.69023984 233.74983124 142.69087768 227.36548018 C142.69170765 222.706931 142.69460724 218.0483848 142.69771415 213.38983667 C142.7060166 200.85923717 142.70975672 188.32864477 142.70904442 175.79804262 C142.70900446 175.08692061 142.70896451 174.3757986 142.70892334 173.64312744 C142.70886202 172.57513683 142.70886202 172.57513683 142.70879946 171.48557065 C142.70839309 159.94926843 142.71796109 148.41299886 142.73206171 136.87670609 C142.74643738 125.02151026 142.75333123 113.16633034 142.75246793 101.31112558 C142.75213637 94.65928546 142.75506087 88.00747544 142.76564598 81.35564232 C142.77533078 75.09873737 142.77540345 68.84190468 142.76812935 62.58499718 C142.76708399 60.29087722 142.76944349 57.99675276 142.77548981 55.70264053 C142.78321949 52.56623759 142.7785583 49.43008359 142.77085876 46.29368591 C142.77857411 44.93840696 142.77857411 44.93840696 142.78644532 43.55574864 C142.73769886 34.54340977 141.79164894 26.3649328 135.10565186 19.73419189 C127.17599316 12.72184591 118.28803746 12.99087771 108.24505615 12.99517822 C106.55367523 12.9901403 106.55367523 12.9901403 104.828125 12.98500061 C101.10551854 12.97551227 97.38295716 12.97354854 93.66033936 12.97247314 C91.06730633 12.96925905 88.47427349 12.96589487 85.88124084 12.96238708 C80.44668073 12.95640108 75.01213844 12.95450375 69.57757568 12.95513916 C63.31327895 12.95573941 57.04906848 12.94519465 50.78479356 12.9293955 C44.7395801 12.91469701 38.69441315 12.91115238 32.64917946 12.91174889 C30.08602356 12.91057091 27.52286699 12.9061594 24.95972252 12.89841652 C21.36986569 12.88858758 17.78022925 12.89150632 14.19036865 12.89752197 C13.138116 12.89190247 12.08586334 12.88628296 11.00172424 12.88049316 C0.64634599 12.92444925 -8.02216409 13.93131471 -15.22637939 22.07794189 Z " fill="#000000" transform="translate(33.47637939453125,-0.14044189453125)"/>
<path d="M0 0 C1.4075354 -0.0098568 1.4075354 -0.0098568 2.84350586 -0.01991272 C5.95776442 -0.03967016 9.07197473 -0.05131344 12.1862793 -0.0612793 C13.24836294 -0.06535482 14.31044659 -0.06943035 15.40471458 -0.07362938 C21.02550437 -0.09450002 26.64626967 -0.10879775 32.26708984 -0.11816406 C38.07799142 -0.1292338 43.88851062 -0.16363761 49.69927692 -0.20333576 C54.16280336 -0.229458 58.62623806 -0.23785198 63.08983421 -0.24144554 C65.23207369 -0.24632244 67.37430877 -0.25796764 69.51647377 -0.27648354 C72.51389654 -0.3007824 75.51032178 -0.29992679 78.5078125 -0.29296875 C79.39371567 -0.30577881 80.27961884 -0.31858887 81.19236755 -0.33178711 C85.3129721 -0.29690018 87.41037785 -0.16117329 90.97550964 2.08137512 C94.28268825 5.59501415 94.27852458 8.2506069 94.2409668 12.9152832 C93.81144004 16.23122975 92.33875451 17.92687822 89.94799805 20.17700195 C86.54046465 21.88076865 82.64605287 21.34269918 78.89599609 21.35400391 C77.95763916 21.3605751 77.01928223 21.3671463 76.05249023 21.37391663 C72.93823167 21.39367407 69.82402137 21.40531734 66.7097168 21.4152832 C65.64763315 21.41935873 64.58554951 21.42343426 63.49128151 21.42763329 C57.87049172 21.44850393 52.24972643 21.46280165 46.62890625 21.47216797 C40.81800467 21.48323771 35.00748547 21.51764151 29.19671917 21.55733967 C24.73319274 21.58346191 20.26975804 21.59185588 15.80616188 21.59544945 C13.66392241 21.60032635 11.52168733 21.61197154 9.37952232 21.63048744 C6.38209956 21.65478631 3.38567431 21.65393069 0.38818359 21.64697266 C-0.94067116 21.66618774 -0.94067116 21.66618774 -2.29637146 21.68579102 C-6.41697601 21.65090408 -8.51438175 21.5151772 -12.07951355 19.27262878 C-15.38669216 15.75898976 -15.38252848 13.103397 -15.3449707 8.4387207 C-14.91544395 5.12277415 -13.44275841 3.42712568 -11.05200195 1.17700195 C-7.64446855 -0.52676475 -3.75005677 0.01130473 0 0 Z " fill="#000000" transform="translate(55.052001953125,264.822998046875)"/>
</svg>
