<svg xmlns="http://www.w3.org/2000/svg" version="1.1" xmlns:xlink="http://www.w3.org/1999/xlink"
  viewBox="0 0 609.626 609.626"
  style="enable-background:new 0 0 512 512" xml:space="preserve"><g><path d="M567.469 245.053a103.005 103.005 0 0 1-21.004-18.732 96.216 96.216 0 0 1 5.953-29.221c6.561-22.213 14.733-49.858-1.016-71.49-15.863-21.804-44.842-22.536-68.123-23.131a99.826 99.826 0 0 1-29.078-3.126 98.82 98.82 0 0 1-11.82-26.43c-7.768-22.123-17.445-49.658-43.361-58.08-25.147-8.173-47.715 7.355-67.614 21.01a94.76 94.76 0 0 1-26.586 14.946 94.591 94.591 0 0 1-26.597-14.946c-19.9-13.667-42.474-29.146-67.615-21.01-25.909 8.422-35.583 35.943-43.36 58.071a100.754 100.754 0 0 1-11.696 26.343 97.574 97.574 0 0 1-29.204 3.213c-23.28.594-52.259 1.327-68.122 23.13-15.749 21.644-7.578 49.289-1.016 71.504a98.94 98.94 0 0 1 6.009 29.036 99.428 99.428 0 0 1-21.066 18.914C23.369 259.379 0 277.213 0 304.81s23.369 45.431 42.157 59.757a103.005 103.005 0 0 1 21.004 18.732 96.223 96.223 0 0 1-5.953 29.221c-6.561 22.213-14.733 49.86 1.016 71.49 15.863 21.804 44.842 22.536 68.123 23.132a99.826 99.826 0 0 1 29.078 3.126 98.835 98.835 0 0 1 11.82 26.43c7.777 22.127 17.451 49.659 43.366 58.083a45.637 45.637 0 0 0 14.225 2.27c19.504 0 37.314-12.242 53.389-23.28a94.74 94.74 0 0 1 26.587-14.95 94.63 94.63 0 0 1 26.599 14.946c19.899 13.667 42.467 29.134 67.614 21.01 25.909-8.422 35.583-35.943 43.36-58.071a100.754 100.754 0 0 1 11.696-26.343 97.574 97.574 0 0 1 29.204-3.213c23.28-.594 52.259-1.327 68.122-23.13 15.749-21.643 7.578-49.29 1.016-71.504a98.94 98.94 0 0 1-6.009-29.036 99.428 99.428 0 0 1 21.066-18.914c18.776-14.325 42.145-32.159 42.145-59.756.001-27.597-23.368-45.431-42.156-59.757zm-149.442 14.214L291.021 386.272c-9.916 9.919-25.995 9.922-35.914.006l-.006-.006-63.503-63.503c-10.045-9.793-10.249-25.875-.456-35.92s25.875-10.249 35.92-.456c.154.15.306.302.456.456l45.543 45.544 109.046-109.047c9.793-10.045 25.875-10.248 35.92-.455s10.248 25.875.455 35.92c-.15.155-.302.306-.455.456z"   ></path></g></svg>